HIERARCHY
ROOT Hips
{
    OFFSET 0.000000 0.000000 0.000000
    CHANNELS 6 Xposition Yposition Zposition Zrotation Xrotation Yrotation
    JOINT Chest
    {
        OFFSET -0.000000 0.071157 0.000000
        CHANNELS 3 Zrotation Xrotation Yrotation
        JOINT Chest2
        {
            OFFSET -0.000000 0.200496 0.000000
            CHANNELS 3 Zrotation Xrotation Yrotation
            JOINT Neck
            {
                OFFSET -0.000000 0.217851 0.000000
                CHANNELS 3 Zrotation Xrotation Yrotation
                JOINT Head
                {
                    OFFSET -0.000000 0.094152 0.017355
                    CHANNELS 3 Zrotation Xrotation Yrotation
                    End Site
                    {
                        OFFSET -0.000000 0.173553 0.000000
                    }
                }
            }
            JOINT LeftCollar
            {
                OFFSET 0.034349 0.184703 -0.001098
                CHANNELS 3 Zrotation Xrotation Yrotation
                JOINT LeftShoulder
                {
                    OFFSET 0.100089 0.000000 0.000000
                    CHANNELS 3 Zrotation Xrotation Yrotation
                    JOINT LeftElbow
                    {
                        OFFSET 0.265196 0.000000 0.000000
                        CHANNELS 3 Zrotation Xrotation Yrotation
                        JOINT LeftWrist
                        {
                            OFFSET 0.220131 0.000000 0.000000
                            CHANNELS 3 Zrotation Xrotation Yrotation
                            End Site
                            {
                                OFFSET 0.000000 -0.130165 0.000000
                            }
                        }
                    }
                }
            }
            JOINT RightCollar
            {
                OFFSET -0.035053 0.184703 -0.001098
                CHANNELS 3 Zrotation Xrotation Yrotation
                JOINT RightShoulder
                {
                    OFFSET -0.100089 0.000000 0.000000
                    CHANNELS 3 Zrotation Xrotation Yrotation
                    JOINT RightElbow
                    {
                        OFFSET -0.265196 0.000000 0.000000
                        CHANNELS 3 Zrotation Xrotation Yrotation
                        JOINT RightWrist
                        {
                            OFFSET -0.220131 0.000000 0.000000
                            CHANNELS 3 Zrotation Xrotation Yrotation
                            End Site
                            {
                                OFFSET -0.000000 -0.130165 0.000000
                            }
                        }
                    }
                }
            }
        }
    }
    JOINT LeftHip
    {
        OFFSET 0.086776 0.000000 0.000000
        CHANNELS 3 Zrotation Xrotation Yrotation
        JOINT LeftKnee
        {
            OFFSET -0.000000 -0.397777 0.000000
            CHANNELS 3 Zrotation Xrotation Yrotation
            JOINT LeftAnkle
            {
                OFFSET -0.000000 -0.331973 0.000000
                CHANNELS 3 Zrotation Xrotation Yrotation
                JOINT LeftToe
                {
                    OFFSET -0.000000 -0.056405 0.130165
                    CHANNELS 3 Zrotation Xrotation Yrotation
                    End Site
                    {
                        OFFSET -0.000000 0.000000 0.034711
                    }
                }
            }
        }
    }
    JOINT RightHip
    {
        OFFSET -0.086776 0.000000 0.000000
        CHANNELS 3 Zrotation Xrotation Yrotation
        JOINT RightKnee
        {
            OFFSET -0.000000 -0.397777 0.000000
            CHANNELS 3 Zrotation Xrotation Yrotation
            JOINT RightAnkle
            {
                OFFSET -0.000000 -0.331973 0.000000
                CHANNELS 3 Zrotation Xrotation Yrotation
                JOINT RightToe
                {
                    OFFSET -0.000000 -0.056405 0.130165
                    CHANNELS 3 Zrotation Xrotation Yrotation
                    End Site
                    {
                        OFFSET -0.000000 0.000000 0.034711
                    }
                }
            }
        }
    }
}
MOTION
Frames:    8
Frame Time:    0.016667
-0.159331    0.792435    -0.508168    0.394772    -2.527990    127.194405    -4.996880    15.562817    7.589135    3.186226    13.742820    1.912804    -6.498582    13.854731    -6.194392    2.791121    10.473093    -8.660357    4.351781    13.063337    -2.147760    -168.978287    67.177765    110.882813    -32.265564    -23.771891    -127.071190    109.594376    30.321737    65.035423    -3.968128    4.459207    14.802533    26.437969    36.935410    37.715725    -40.502739    -22.884672    41.940655    -121.399559    -5.876195    -8.837610    4.982727    -19.847118    5.999827    -10.176526    36.379036    10.045298    4.107109    -11.665314    8.156857    0.000000    0.000000    0.000000    1.418473    -15.961864    -9.678092    -5.820398    38.344646    -5.406793    3.393624    -14.368632    1.285115    0.000000    0.000000    0.000000    
-0.157606    0.793488    -0.509495    0.398004    -2.503863    127.157448    -4.953691    15.421134    7.479172    3.132311    13.608879    1.890503    -6.512164    14.009769    -6.280121    2.787200    10.384212    -8.758169    4.313962    13.222115    -2.087830    -168.477051    67.227844    110.373756    -32.245689    -23.771212    -127.103745    109.839775    30.620455    64.913162    -3.065222    6.610361    14.524526    24.817730    35.698948    38.195873    -40.558670    -23.278219    42.903633    -121.019157    -5.706140    -8.754245    4.980325    -19.416943    6.226622    -10.049719    35.930695    9.792725    4.106589    -11.602695    8.128883    0.000000    0.000000    0.000000    1.542707    -16.057802    -9.675916    -5.318557    36.941971    -6.223341    3.332295    -14.028173    1.293013    0.000000    0.000000    0.000000    
-0.155782    0.794352    -0.510835    0.394384    -2.450003    127.218559    -4.923760    15.188279    7.297084    3.166555    13.619558    1.830414    -6.560435    14.043349    -6.397407    2.791494    10.418130    -8.895205    4.292058    13.166424    -2.038128    -168.454620    67.007538    110.279465    -32.267811    -23.952280    -127.249809    109.395470    30.236052    65.306770    -3.749169    4.933228    14.283285    28.330269    37.721317    36.246513    -41.429180    -23.568645    43.369404    -121.352318    -5.676145    -8.475500    4.908268    -19.030962    6.223506    -9.976327    35.491066    9.592235    4.048388    -11.451224    8.155015    0.000000    0.000000    0.000000    1.652951    -16.115551    -9.742682    -5.106291    35.656292    -6.730569    3.414864    -13.636291    1.459494    0.000000    0.000000    0.000000    
-0.153190    0.795274    -0.512051    0.541606    -2.378027    127.268379    -4.895586    15.034750    7.136546    3.325680    13.593542    1.762072    -6.709782    14.109717    -6.452155    3.078379    10.416931    -9.056000    4.282293    13.176294    -1.928375    -168.119370    67.056313    109.803619    -32.324173    -23.727150    -127.093437    109.516129    30.425415    65.102882    -3.876596    5.180965    14.088435    29.863625    38.150570    35.042969    -41.904686    -24.102856    44.387512    -120.599731    -5.575253    -8.306711    4.912702    -18.470745    6.402291    -9.696006    35.194237    9.498992    3.909111    -11.545224    7.876179    0.000000    0.000000    0.000000    1.795388    -15.968469    -9.517715    -4.514799    34.098873    -7.022033    3.130724    -12.985596    1.108207    0.000000    0.000000    0.000000    
-0.151392    0.795959    -0.512849    0.521797    -2.325618    127.240509    -4.923173    14.725347    7.054758    3.424132    13.712607    1.723005    -6.839111    14.087001    -6.451063    3.276887    10.510060    -9.132357    4.221265    13.156317    -1.854290    -167.996262    67.082291    109.717484    -32.506969    -23.727901    -127.249176    109.277924    30.517202    65.470039    -3.638178    5.902941    13.785873    30.071882    38.132069    34.629932    -42.193207    -24.558777    45.253071    -120.748383    -5.410600    -8.230371    4.860052    -18.183149    6.356850    -9.652865    34.921413    9.802114    3.706228    -11.487192    7.484419    0.000000    0.000000    0.000000    1.874949    -16.135403    -9.103642    -4.183761    33.338615    -7.260993    2.552963    -12.327440    0.707177    0.000000    0.000000    0.000000    
-0.149176    0.796149    -0.513715    0.530589    -2.205635    127.321648    -4.972976    14.508046    6.901604    3.564413    13.690806    1.657187    -6.838804    14.237576    -6.545456    3.189151    10.534217    -9.220201    4.016253    13.213647    -1.789256    -168.088959    67.069031    109.854385    -32.340683    -23.730516    -127.215553    109.215088    30.490633    65.284912    -3.768950    5.306330    13.417473    31.710108    39.096001    33.412754    -42.333599    -24.632978    46.150055    -120.991844    -5.630302    -7.898878    4.756267    -17.877316    6.281977    -9.579431    34.792313    9.818421    3.652348    -11.584333    7.418826    0.000000    0.000000    0.000000    1.894022    -16.131401    -8.904578    -4.121533    32.655228    -7.218907    2.436645    -11.856091    0.366440    0.000000    0.000000    0.000000    
-0.146986    0.796115    -0.514259    0.574393    -2.070008    127.313950    -4.962051    14.267368    6.794450    3.449286    13.795525    1.636357    -6.677533    14.341450    -6.618999    3.270204    10.531364    -9.277962    4.168236    13.196237    -1.652642    -168.151413    67.074356    109.862297    -32.387558    -23.666811    -127.265755    109.194443    30.319693    65.387802    -3.609253    5.449231    13.245041    32.447403    39.628193    32.660587    -42.746796    -24.899706    46.608894    -121.048927    -5.661988    -7.778075    4.784358    -17.632380    6.194432    -9.744732    34.856117    9.876471    3.623031    -11.694147    7.525434    0.000000    0.000000    0.000000    1.961995    -16.030392    -8.581053    -4.056582    31.951433    -7.402819    2.089959    -11.294708    0.165591    0.000000    0.000000    0.000000    
-0.144494    0.795629    -0.514515    0.784090    -1.826450    127.370514    -5.018690    14.253350    6.637521    3.536648    13.841006    1.570116    -6.573883    14.489799    -6.705433    3.099595    10.539330    -9.311833    4.058727    13.184402    -1.519819    -168.082031    67.023430    109.834091    -32.501701    -23.830620    -127.350273    108.829140    30.536177    65.698486    -3.507405    5.538677    13.092537    33.192402    40.014217    31.879618    -42.583431    -25.194649    47.478661    -121.964676    -5.613371    -7.806856    4.815198    -17.323473    6.191656    -9.749593    35.199306    9.983896    3.512651    -11.903608    7.513444    0.000000    0.000000    0.000000    2.011417    -15.666708    -8.412305    -4.047421    31.308723    -7.343485    1.915339    -10.785393    0.109477    0.000000    0.000000    0.000000    
